<svg xmlns="http://www.w3.org/2000/svg" version="1.1" xmlns:xlink="http://www.w3.org/1999/xlink" xmlns:svgjs="http://svgjs.dev/svgjs" width="1000" height="1000" viewBox="0 0 1000 1000"><rect width="1000" height="1000" fill="#ffffff"></rect><g transform="matrix(0.7,0,0,0.7,149.57575757575756,362.87191452126626)"><svg viewBox="0 0 396 155" data-background-color="#89939e" preserveAspectRatio="xMidYMid meet" height="391" width="1000" xmlns="http://www.w3.org/2000/svg" xmlns:xlink="http://www.w3.org/1999/xlink"><g id="tight-bounds" transform="matrix(1,0,0,1,0.2400000000000091,0.15748376800526387)"><svg viewBox="0 0 395.52 154.6850306023102" height="154.6850306023102" width="395.52"><g><svg viewBox="0 0 397.4975999999999 155.45845575532172" height="154.6850306023102" width="395.52"><g><rect width="397.4975999999999" height="4.447001568422394" x="0" y="79.79046535890865" fill="#000000" opacity="1" stroke-width="0" stroke="transparent" fill-opacity="1" class="rect-o-0" data-fill-palette-color="primary" rx="1%" id="o-0" data-palette-color="#000000"></rect></g><g><rect width="397.4975999999999" height="4.447001568422394" x="0" y="90.0581496085122" fill="#000000" opacity="1" stroke-width="0" stroke="transparent" fill-opacity="1" class="rect-o-1" data-fill-palette-color="primary" rx="1%" id="o-1" data-palette-color="#000000"></rect></g><g transform="matrix(1,0,0,1,0.9887999999999693,106.14651653929687)"><svg viewBox="0 0 395.52 49.31193921602487" height="49.31193921602487" width="395.52"><g id="textblocktransform"><svg viewBox="0 0 395.52 49.31193921602487" height="49.31193921602487" width="395.52" id="textblock"><g><svg viewBox="0 0 395.52 49.31193921602487" height="49.31193921602487" width="395.52"><g transform="matrix(1,0,0,1,0,0)"><svg width="395.52" viewBox="1.0499999523162842 -35.5 289.5299987792969 36.099998474121094" height="49.31193921602487" data-palette-color="#000000"><path d="M27.9 0L23.8 0 20.7-10.45 8.15-10.45 5.05 0 1.05 0 11.95-34.9 16.95-34.9 27.9 0ZM19.8-13.75L15.75-27 14.65-31.35 14.15-31.35 13.05-27 9.1-13.75 19.8-13.75ZM50.35 0L33.1 0 33.1-34.9 37.1-34.9 37.1-3.5 50.35-3.5 50.35 0ZM59.75 0L55.75 0 55.75-34.9 74.59-34.9 74.59-31.4 59.75-31.4 59.75-19.4 73.25-19.4 73.25-15.9 59.75-15.9 59.75 0ZM101.89 0L97.79 0 94.69-10.45 82.14-10.45 79.04 0 75.04 0 85.94-34.9 90.94-34.9 101.89 0ZM93.79-13.75L89.74-27 88.64-31.35 88.14-31.35 87.04-27 83.09-13.75 93.79-13.75ZM142.04 0L142.04-23.95 142.39-29.95 141.89-29.95 139.29-23.95 131.79-8.55 124.29-23.95 121.69-29.85 121.19-29.85 121.54-23.95 121.54 0 117.64 0 117.64-34.9 122.94-34.9 129.24-21.35 131.59-14.9 131.99-14.9 134.34-21.35 140.64-34.9 145.94-34.9 145.94 0 142.04 0ZM165.99 0.6L165.99 0.6Q159.64 0.6 156.14-3.75 152.64-8.1 152.64-17.45L152.64-17.45Q152.64-26.8 156.14-31.15 159.64-35.5 165.99-35.5L165.99-35.5Q172.34-35.5 175.84-31.15 179.34-26.8 179.34-17.45L179.34-17.45Q179.34-8.1 175.84-3.75 172.34 0.6 165.99 0.6ZM165.99-2.95L165.99-2.95Q170.34-2.95 172.69-5.83 175.04-8.7 175.04-13.55L175.04-13.55 175.04-21.35Q175.04-26.2 172.69-29.08 170.34-31.95 165.99-31.95L165.99-31.95Q161.64-31.95 159.29-29.08 156.94-26.2 156.94-21.35L156.94-21.35 156.94-13.55Q156.94-8.7 159.29-5.83 161.64-2.95 165.99-2.95ZM205.68-31.4L195.83-31.4 195.83 0 191.83 0 191.83-31.4 181.98-31.4 181.98-34.9 205.68-34.9 205.68-31.4ZM221.68 0.6L221.68 0.6Q215.33 0.6 211.83-3.75 208.33-8.1 208.33-17.45L208.33-17.45Q208.33-26.8 211.83-31.15 215.33-35.5 221.68-35.5L221.68-35.5Q228.03-35.5 231.53-31.15 235.03-26.8 235.03-17.45L235.03-17.45Q235.03-8.1 231.53-3.75 228.03 0.6 221.68 0.6ZM221.68-2.95L221.68-2.95Q226.03-2.95 228.38-5.83 230.73-8.7 230.73-13.55L230.73-13.55 230.73-21.35Q230.73-26.2 228.38-29.08 226.03-31.95 221.68-31.95L221.68-31.95Q217.33-31.95 214.98-29.08 212.63-26.2 212.63-21.35L212.63-21.35 212.63-13.55Q212.63-8.7 214.98-5.83 217.33-2.95 221.68-2.95ZM245.78-15L245.78 0 241.78 0 241.78-34.9 254.63-34.9Q263.28-34.9 263.28-24.95L263.28-24.95Q263.28-16.55 257.08-15.25L257.08-15.25 264.13 0 259.63 0 253.08-15 245.78-15ZM245.78-18.4L254.53-18.4Q258.98-18.4 258.98-23.2L258.98-23.2 258.98-26.6Q258.98-31.4 254.53-31.4L254.53-31.4 245.78-31.4 245.78-18.4ZM279.58 0.6L279.58 0.6Q275.83 0.6 273.03-0.98 270.23-2.55 268.38-5.35L268.38-5.35 271.28-7.75Q272.88-5.4 274.88-4.13 276.88-2.85 279.58-2.85L279.58-2.85Q286.68-2.85 286.68-9.5L286.68-9.5Q286.68-12.2 285.38-13.6 284.08-15 280.88-15.8L280.88-15.8 278.28-16.45Q273.68-17.6 271.5-19.83 269.33-22.05 269.33-26.1L269.33-26.1Q269.33-30.75 272.23-33.13 275.13-35.5 279.93-35.5L279.93-35.5Q283.58-35.5 286.05-34.15 288.53-32.8 290.38-29.9L290.38-29.9 287.43-27.8Q286.08-29.9 284.35-30.98 282.63-32.05 279.78-32.05L279.78-32.05Q276.58-32.05 274.9-30.65 273.23-29.25 273.23-26.1L273.23-26.1Q273.23-23.55 274.6-22.25 275.98-20.95 279.03-20.2L279.03-20.2 281.63-19.55Q284.08-18.95 285.78-18.13 287.48-17.3 288.55-16.1 289.63-14.9 290.1-13.28 290.58-11.65 290.58-9.5L290.58-9.5Q290.58-4.55 287.65-1.98 284.73 0.6 279.58 0.6Z" opacity="1" transform="matrix(1,0,0,1,0,0)" fill="#000000" class="undefined-text-0" data-fill-palette-color="primary" id="text-0"></path></svg></g></svg></g></svg></g></svg></g><g transform="matrix(1,0,0,1,156.38159820354704,0)"><svg viewBox="0 0 84.73440359290584 68.14909999654637" height="68.14909999654637" width="84.73440359290584"><g><svg xmlns="http://www.w3.org/2000/svg" xmlns:xlink="http://www.w3.org/1999/xlink" version="1.1" x="0" y="0" viewBox="0 9.78600025177002 100.0003433227539 80.42699432373047" enable-background="new 0 0 100 100" xml:space="preserve" width="84.73440359290584" height="68.14909999654637" class="icon-icon-0" data-fill-palette-color="accent" id="icon-0"><path d="M49.942 52.994c13.552-0.488 27.103-0.977 40.653-1.465-2.527-4.177-3.159-7.831-7.989-8.461-7.229-0.94-14.458-1.883-21.688-2.826-14.023-1.827-28.05-3.654-42.075-5.48C20.101 36.792 39.724 53.361 49.942 52.994z" fill="#000000" data-fill-palette-color="accent"></path><path d="M0 9.786c4.391 7.257 26.615 23.072 32.953 23.886 17.33 2.231 34.657 4.46 51.986 6.688-3.393-5.607-4.18-9.35-10.312-10.959-8.904-2.341-17.812-4.683-26.717-7.023C31.94 18.182 15.97 13.984 0 9.786z" fill="#000000" data-fill-palette-color="accent"></path><path d="M63.108 66.207c10.413-2.219 20.826-4.439 31.241-6.66-2.028-3.346-2.034-5.359-5.827-5.189-6.158 0.273-12.314 0.549-18.471 0.822-11.343 0.506-22.686 1.014-34.028 1.518C37.298 58.064 54.94 67.947 63.108 66.207z" fill="#000000" data-fill-palette-color="accent"></path><path d="M87.682 90.213c5.725-3.719 7.262-7.721 10.519-13.807 3.651-6.824 1.257-7.844-2.821-14.596-0.417-0.688-5.842 0.232-6.453 0.904-0.745 0.818-0.248 5.455-0.294 6.496C88.315 76.211 87.998 83.213 87.682 90.213z" fill="#000000" data-fill-palette-color="accent"></path><path d="M86.35 63.447c-3.795 0.809-8.604 0.191-9.572 4.229-1.373 5.736-2.746 11.475-4.12 17.211C81.904 82.678 86.028 71.582 86.35 63.447z" fill="#000000" data-fill-palette-color="accent"></path><path d="M74.666 66.121c-9.148 1.953-8.956 4.611-12.879 13.18C68.007 78.711 73.811 71.941 74.666 66.121z" fill="#000000" data-fill-palette-color="accent"></path></svg></g></svg></g><g></g></svg></g><defs></defs></svg><rect width="395.52" height="154.6850306023102" fill="none" stroke="none" visibility="hidden"></rect></g></svg></g></svg>